<svg xmlns="http://www.w3.org/2000/svg" viewBox="0 0 236.681 61">
  <g>
    <path d="M37.777,44.386,26.916,49.108v-.472a33.364,33.364,0,0,1-6.611.944c-10.215-.1-18.322-5.445-18.416-11.8V35.414c3.355,4.877,10.185,8.146,18.416,8.027a28,28,0,0,0,8.028-.944l.944-2.361a31.171,31.171,0,0,1-8.972,1.417c-10.215.02-18.322-5.326-18.416-11.8V27.859c3.355,4.509,10.17,7.779,18.416,7.555a22.844,22.844,0,0,0,10.389-1.889l.472-2.361a22.235,22.235,0,0,1-10.861,2.361C10.091,33.65,1.983,28.3,1.889,21.721V19.832c3.355,4.614,10.185,7.883,18.416,8.027a29.476,29.476,0,0,0,12.75-3.305l.472-2.833a24.573,24.573,0,0,1-13.222,4.25C10.091,25.742,1.983,20.4,1.889,13.694c.094-6.375,8.2-11.72,18.416-11.8,6.089.085,11.744,2.22,15.111,5.666l.328.547,2.381.009-.348-.556C34.428,3,27.731,0,20.305,0,9,0,0,6.229,0,13.694V38.247c.4,7.287,9.195,13.221,20.305,13.221C27.642,51.469,34.237,48.582,37.777,44.386Z" fill="#404040"/> <!-- #000000 -->
    <path d="M33.359,61l3.813-16.2L26.211,49.563l6.672-28.117H20.016l3.336-13.82H64.336L61,21.445H47.656L44.8,29.07l14.773-6.2Zm6.672-19.539-1.906,9.531L53.852,27.164,40.984,32.883,46.7,19.539H59.57L61.953,9.531H24.781L22.4,19.539H35.266l-6.2,26.688Z" fill="#919191"/> <!-- #fabf2c -->
  </g>
  <g transform="translate(74.336 7.5)">
	<path d="M10.249,8.184A4.436,4.436,0,0,1,8.755,11.37,5.246,5.246,0,0,1,5.2,12.532,4.717,4.717,0,0,1,1.41,10.909a6.214,6.214,0,0,1-1.4-4.28V5.864A6.764,6.764,0,0,1,.648,2.85,4.775,4.775,0,0,1,2.471.736a5.691,5.691,0,0,1,6.246.426,4.767,4.767,0,0,1,1.532,3.264H7.667a2.618,2.618,0,0,0-.676-1.761,2.5,2.5,0,0,0-1.773-.547,2.195,2.195,0,0,0-1.933.926,4.626,4.626,0,0,0-.659,2.7V6.69a4.965,4.965,0,0,0,.633,2.794,2.154,2.154,0,0,0,1.942.938,2.55,2.55,0,0,0,1.787-.547,2.469,2.469,0,0,0,.676-1.692Zm13.969-1.63a6.829,6.829,0,0,1-.666,3.072,4.928,4.928,0,0,1-1.873,2.154,5.533,5.533,0,0,1-5.575.009,4.976,4.976,0,0,1-1.894-2.14,6.605,6.605,0,0,1-.668-3.026V6a6.8,6.8,0,0,1,.667-3.088A4.968,4.968,0,0,1,16.095.754a5.525,5.525,0,0,1,5.571,0,4.968,4.968,0,0,1,1.886,2.161,6.779,6.779,0,0,1,.667,3.079ZM21.6,5.986a4.735,4.735,0,0,0-.706-2.829,2.494,2.494,0,0,0-4.021-.013,4.677,4.677,0,0,0-.715,2.8v.615a4.77,4.77,0,0,0,.694,2.805,2.472,2.472,0,0,0,4.029.039A4.762,4.762,0,0,0,21.6,6.6Zm9.233,6.552H28.251V0h2.583Zm14.58,0H42.831L37.8,4.29v8.248H35.218V0H37.8l5.037,8.265V0h2.574ZM58.848,2.094h-3.84V12.536H52.425V2.092H48.637V0H58.848ZM69.854,7.1H64.895v3.358h5.82v2.075h-8.4V0H70.7V2.092H64.9V5.08H69.86ZM76.8,10.463h5.484v2.075H74.218V0H76.8ZM93.3,7.1H88.346v3.358h5.82v2.075h-8.4V0h8.386V2.092h-5.8V5.08h4.959Zm14.286,3.67a4.483,4.483,0,0,1-1.972,1.3,8.257,8.257,0,0,1-2.824.461,5.594,5.594,0,0,1-2.854-.71,4.738,4.738,0,0,1-1.894-2.062,6.506,6.506,0,0,1-.684-3V5.914A6.958,6.958,0,0,1,98,2.835,4.681,4.681,0,0,1,99.821.725a6.01,6.01,0,0,1,6.281.336,4.544,4.544,0,0,1,1.489,3.1h-2.514a2.5,2.5,0,0,0-.762-1.576,2.434,2.434,0,0,0-1.623-.5,2.29,2.29,0,0,0-2.006.99,4.665,4.665,0,0,0-.7,2.774v.8a4.425,4.425,0,0,0,.749,2.8,2.565,2.565,0,0,0,2.2,1.007,2.865,2.865,0,0,0,2.075-.62V7.854h-2.35v-1.9h4.933Zm8.725-2.821h-2.058v4.589h-2.583V0h4.658a5.265,5.265,0,0,1,3.427.99,3.417,3.417,0,0,1,1.205,2.8,3.857,3.857,0,0,1-.555,2.14A3.787,3.787,0,0,1,118.727,7.3l2.712,5.123v.121h-2.772Zm-2.058-2.1h2.084a2.133,2.133,0,0,0,1.507-.5,1.769,1.769,0,0,0,.534-1.365,1.894,1.894,0,0,0-.5-1.4,2.093,2.093,0,0,0-1.545-.508h-2.08ZM132,9.954h-4.529l-.861,2.583h-2.747L128.528,0h2.39l4.7,12.536h-2.747Zm-3.831-2.092H131.3L129.725,3.17Zm13.193.258v4.417h-2.583V0h4.89a5.658,5.658,0,0,1,2.484.517A3.807,3.807,0,0,1,147.8,1.985a4.093,4.093,0,0,1,.577,2.165,3.6,3.6,0,0,1-1.259,2.9,5.253,5.253,0,0,1-3.491,1.063Zm0-2.092h2.307a2.269,2.269,0,0,0,1.563-.482,1.754,1.754,0,0,0,.538-1.378,2.068,2.068,0,0,0-.542-1.489,2.026,2.026,0,0,0-1.5-.585h-2.368Zm20.985,6.509h-2.583V7.164h-5.037v5.372h-2.583V0h2.583V5.08h5.037V0h2.583Z" fill="#919191"/> <!-- #fabf2c -->
  </g>
</svg>
