<?xml version="1.0" encoding="utf-8"?>
<!-- Generator: Adobe Illustrator 22.1.0, SVG Export Plug-In . SVG Version: 6.00 Build 0)  -->
<svg version="1.1" xmlns="http://www.w3.org/2000/svg" xmlns:xlink="http://www.w3.org/1999/xlink" x="0px" y="0px"
	 viewBox="0 0 609.3 240.3" style="enable-background:new 0 0 609.3 240.3;" xml:space="preserve">
<style type="text/css">
	.st0{fill:#FFFFFF;}
	.st1{font-family:'MyriadPro-Light';}
	.st2{font-size:22.1556px;}
	.st3{fill:#002856;}
	.st4{fill:#00904C;}
</style>
<g id="Layer_1">
	<g>
		<g>
			<g>
				<path class="st0" d="M192,82.8h17.7v12.3h0.3c2-4.3,4.9-7.8,8.6-10.5c3.7-2.7,8-4,12.9-4c0.7,0,1.5,0,2.3,0.1
					c0.8,0.1,1.5,0.2,2.2,0.4V98c-1.2-0.3-2.3-0.5-3.2-0.6c-0.9-0.1-1.7-0.2-2.5-0.2c-4.2,0-7.6,0.8-10.1,2.3
					c-2.6,1.5-4.6,3.4-6,5.5c-1.4,2.2-2.4,4.4-2.9,6.6c-0.5,2.3-0.8,4.1-0.8,5.4v39.5H192V82.8z"/>
				<path class="st0" d="M315.6,120.6c0,0.8,0,1.6,0,2.5c0,0.8-0.1,1.6-0.2,2.5h-56.1c0.2,2.7,0.9,5.1,2.1,7.3
					c1.2,2.2,2.7,4.1,4.7,5.7c1.9,1.6,4.2,2.8,6.6,3.8s5,1.4,7.7,1.4c4.6,0,8.5-0.8,11.7-2.5c3.2-1.7,5.8-4,7.8-7l12.3,9.8
					c-7.3,9.8-17.8,14.8-31.7,14.8c-5.7,0-11-0.9-15.8-2.7c-4.8-1.8-9-4.3-12.5-7.6c-3.5-3.3-6.3-7.3-8.3-12.1c-2-4.8-3-10.2-3-16.2
					c0-5.9,1-11.4,3-16.2c2-4.9,4.7-9,8.2-12.5c3.5-3.4,7.6-6.1,12.4-8c4.8-1.9,9.9-2.8,15.5-2.8c5.1,0,9.9,0.8,14.2,2.5
					c4.4,1.7,8.1,4.2,11.3,7.5c3.2,3.3,5.7,7.5,7.5,12.5C314.7,108.2,315.6,114,315.6,120.6z M297.2,112.3c0-2.4-0.3-4.6-1-6.8
					c-0.7-2.2-1.7-4-3.2-5.7c-1.4-1.6-3.3-2.9-5.5-3.9c-2.2-1-4.8-1.5-7.8-1.5c-5.5,0-10.2,1.7-14.1,5c-3.8,3.3-6,7.6-6.4,12.8
					H297.2z"/>
				<path class="st0" d="M351.8,97.6V82.8h12.9V71.9l18.1-9.2v20.1h18.5v14.8h-18.5v34.3c0,3.3,0.6,6,1.8,8.1
					c1.2,2.2,3.8,3.2,7.9,3.2c1.2,0,2.6-0.1,4-0.4c1.4-0.3,2.7-0.6,3.8-1.2l0.6,14.5c-1.6,0.6-3.6,1.1-5.8,1.5
					c-2.3,0.4-4.4,0.5-6.5,0.5c-4.9,0-8.9-0.7-12-2.1s-5.5-3.3-7.3-5.7c-1.8-2.4-3-5.2-3.7-8.3c-0.7-3.1-1-6.5-1-10.1V97.6H351.8z"
					/>
				<path class="st0" d="M427.3,40.4v51.8h0.5c0.9-1.2,2.1-2.5,3.5-3.8c1.4-1.3,3.2-2.6,5.2-3.7c2-1.1,4.3-2.1,7-2.8
					c2.7-0.8,5.7-1.2,9.1-1.2c5.2,0,10,1,14.5,3c4.4,2,8.2,4.7,11.4,8.2c3.2,3.5,5.6,7.6,7.4,12.3c1.7,4.7,2.6,9.8,2.6,15.2
					c0,5.4-0.8,10.5-2.5,15.3c-1.7,4.8-4.1,8.9-7.2,12.5c-3.1,3.5-6.9,6.4-11.4,8.5c-4.5,2.1-9.5,3.2-15.1,3.2
					c-5.2,0-10.1-1.1-14.7-3.4c-4.6-2.3-8.1-5.5-10.7-9.8h-0.3v11.1h-17.5v-107L427.3,40.4z M469.6,119.5c0-2.9-0.4-5.7-1.3-8.5
					c-0.9-2.8-2.2-5.4-3.9-7.6c-1.7-2.3-3.9-4.1-6.6-5.5c-2.7-1.4-5.8-2.1-9.4-2.1c-3.4,0-6.4,0.7-9.1,2.2c-2.7,1.4-4.9,3.3-6.8,5.5
					c-1.9,2.3-3.3,4.8-4.3,7.7c-1,2.9-1.5,5.7-1.5,8.6c0,2.9,0.5,5.7,1.5,8.5c1,2.8,2.4,5.4,4.3,7.6c1.9,2.3,4.2,4.1,6.8,5.5
					c2.7,1.4,5.7,2.1,9.1,2.1c3.6,0,6.7-0.7,9.4-2.2c2.7-1.4,4.9-3.3,6.6-5.5c1.7-2.3,3-4.8,3.9-7.7
					C469.1,125.2,469.6,122.3,469.6,119.5z"/>
				<path class="st0" d="M492.8,140.3l39.8-42.7h-38V82.8h60v16.3l-40,42.4h41.8v15.1h-63.7V140.3z"/>
			</g>
		</g>
		<path class="st0" d="M324.5,71.1c0-2.3,0.9-4.3,2.6-6.1c1.7-1.7,3.9-2.6,6.5-2.6c2.6,0,4.9,0.8,6.7,2.5c1.8,1.6,2.7,3.7,2.7,6.2
			c0,2.5-0.9,4.5-2.7,6.2c-1.8,1.6-4,2.5-6.7,2.5c-2.6,0-4.8-0.9-6.5-2.6C325.4,75.5,324.5,73.5,324.5,71.1z"/>
		<path class="st0" d="M324.6,92.1l18.5-9.3v73.8h-18.5V92.1z"/>
		<g>
			<path class="st0" d="M52.8,90.9v62.7c0,2.9,2.4,5.3,5.3,5.3c2.9,0,5.3-2.4,5.3-5.3V94.4l12.1-4.8v64c0,2.9,2.4,5.3,5.3,5.3h0
				h22.6c2.9,0,5.3-2.4,5.3-5.3V90.9c0-2.2-1.3-4.1-3.3-4.9l-5.2-2.1V65.5l25.8-10.3v97.7c0,3.3,2.7,5.9,5.9,5.9h12.4c0,0,0,0,0,0
				l27-0.4c0.3,0,0.5-0.1,0.8-0.2c2-1,3.4-3.1,3.4-5.3V61.4c0-2.4-1.5-4.6-3.7-5.5L134,40.8c-0.6-0.3-1.3-0.4-2-0.4h0
				c-0.1,0-0.1,0-0.2,0h0h0c-0.1,0-0.1,0-0.2,0h0c-0.7,0-1.4,0.2-2,0.4L91.9,55.9c-2.3,0.9-3.7,3.1-3.7,5.5v17.7l-5.6-2.2
				c-0.6-0.2-1.1-0.3-1.7-0.4h0c-0.1,0-0.1,0-0.2,0h0l0,0c-0.1,0-0.1,0-0.2,0h0l0,0c-0.6,0-1.2,0.2-1.7,0.4l-22.6,9
				C54.1,86.8,52.8,88.7,52.8,90.9z M96.4,64.2v18.2l-4.6-1.9V61.4c0-1,0.6-1.8,1.5-2.2l37.6-15.1c0.2-0.1,0.5-0.1,0.8-0.2
				c0,0,0,0,0,0c0,0,0,0,0.1,0h0c0,0,0.1,0,0.1,0c0,0,0,0,0,0c0.3,0,0.5,0.1,0.8,0.2l37.6,15.1c0.9,0.4,1.5,1.2,1.5,2.2v91.4
				c0,0.8-0.4,1.5-1,1.9l-26.5,0.4h-12.4c0,0,0,0-0.1,0c-1.3,0-2.3-1-2.3-2.3V52.4c0-0.6-0.3-1.2-0.8-1.5c-0.5-0.3-1.1-0.4-1.7-0.2
				L97.5,62.6C96.9,62.8,96.4,63.5,96.4,64.2z M56.4,90.9c0-0.7,0.4-1.3,1-1.5l22.6-9c0.2-0.1,0.3-0.1,0.5-0.1h0c0,0,0,0,0,0h0
				c0,0,0,0,0.1,0c0.2,0,0.4,0,0.6,0.1l22.6,9c0.6,0.2,1,0.9,1,1.5v62.7c0,0.9-0.8,1.7-1.7,1.7H80.7c0,0,0,0-0.1,0
				c-0.9,0-1.6-0.8-1.6-1.7V86.9c0-0.6-0.3-1.2-0.8-1.5c-0.3-0.2-0.7-0.3-1-0.3c-0.2,0-0.5,0-0.7,0.1l-15.7,6.3
				c-0.7,0.3-1.1,0.9-1.1,1.7v60.3c0,0.9-0.8,1.7-1.7,1.7c-0.9,0-1.7-0.8-1.7-1.7V90.9z"/>
		</g>
		<g>
			<path class="st0" d="M88.2,79.2L82.6,77c-0.6-0.2-1.1-0.3-1.7-0.4h0c-0.1,0-0.1,0-0.2,0h0l0,0c-0.1,0-0.1,0-0.2,0h0l0,0
				c-0.6,0-1.2,0.2-1.7,0.4l-22.6,9c-2,0.8-3.3,2.7-3.3,4.9v62.7c0,2.9,2.4,5.3,5.3,5.3c2.9,0,5.3-2.4,5.3-5.3V94.4l12.1-4.8v64
				c0,2.9,2.4,5.3,5.3,5.3h0h22.6c2.9,0,5.3-2.4,5.3-5.3V90.9c0-2.2-1.3-4.1-3.3-4.9l-5.2-2.1 M96.4,82.5l-4.6-1.9 M56.4,90.9
				c0-0.7,0.4-1.3,1-1.5l22.6-9c0.2-0.1,0.3-0.1,0.5-0.1h0c0,0,0,0,0,0h0c0,0,0,0,0.1,0c0.2,0,0.4,0,0.6,0.1l22.6,9
				c0.6,0.2,1,0.9,1,1.5v62.7c0,0.9-0.8,1.7-1.7,1.7H80.7c0,0,0,0-0.1,0c-0.9,0-1.6-0.8-1.6-1.7V86.9c0-0.6-0.3-1.2-0.8-1.5
				c-0.3-0.2-0.7-0.3-1-0.3c-0.2,0-0.5,0-0.7,0.1l-15.7,6.3c-0.7,0.3-1.1,0.9-1.1,1.7v60.3c0,0.9-0.8,1.7-1.7,1.7
				c-0.9,0-1.7-0.8-1.7-1.7V90.9z"/>
		</g>
		<text transform="matrix(1 0 0 1 341.685 194.3387)" class="st0 st1 st2">powered by BTG Pactual</text>
	</g>
</g>
<g id="Layer_2">
</g>
</svg>
