<?xml version="1.0" encoding="utf-8"?>
<!-- Generator: Adobe Illustrator 22.1.0, SVG Export Plug-In . SVG Version: 6.00 Build 0)  -->
<svg version="1.1" id="Layer_1" xmlns="http://www.w3.org/2000/svg" xmlns:xlink="http://www.w3.org/1999/xlink" x="0px" y="0px"
	 viewBox="0 0 800 248.5" style="enable-background:new 0 0 800 248.5;" xml:space="preserve">
<style type="text/css">
	.st0{fill:#DAD9D6;}
	.st1{fill:#008F4C;}
	.st2{font-family:'MyriadPro-Regular';}
	.st3{font-size:15.3294px;}
	.st4{fill:#008F4C;stroke:#008F4C;stroke-width:1.4173;stroke-miterlimit:10;}
	.st5{fill:#008F4C;stroke:#008F4C;stroke-width:0.5669;stroke-miterlimit:10;}
</style>
<path class="st0" d="M688.9,119.3h-89.6h-89.6h-89.6h-89.6h-89.6h-89.6H61.7v2.6h89.6h89.6h89.6h89.6h89.6h89.6h89.6h39.3
	c0.7,0,1.3-0.6,1.3-1.3l0,0c0-0.7-0.6-1.3-1.3-1.3H688.9z"/>
<path class="st1" d="M70.5,120.9c0,4.9-4,8.9-8.9,8.9c-4.9,0-8.9-4-8.9-8.9c0-4.9,4-8.9,8.9-8.9C66.6,112.1,70.5,116,70.5,120.9z"/>
<polygon class="st1" points="61.7,88.6 70.7,104.2 52.6,104.2 "/>
<path class="st1" d="M181,120.9c0,4.9-4,8.9-8.9,8.9c-4.9,0-8.9-4-8.9-8.9c0-4.9,4-8.9,8.9-8.9C177,112.1,181,116,181,120.9z"/>
<polygon class="st1" points="172.1,153.2 163.1,137.6 181.2,137.6 "/>
<path class="st1" d="M401.9,120.9c0,4.9-4,8.9-8.9,8.9c-4.9,0-8.9-4-8.9-8.9c0-4.9,4-8.9,8.9-8.9C398,112.1,401.9,116,401.9,120.9z"
	/>
<polygon class="st1" points="393.1,153.2 384.1,137.6 402.1,137.6 "/>
<path class="st1" d="M622.7,120.9c0,4.9-4,8.9-8.9,8.9c-4.9,0-8.9-4-8.9-8.9c0-4.9,4-8.9,8.9-8.9C618.7,112.1,622.7,116,622.7,120.9
	z"/>
<polygon class="st1" points="613.8,153.2 604.8,137.6 622.8,137.6 "/>
<path class="st1" d="M512.4,120.9c0,4.9-4,8.9-8.9,8.9c-4.9,0-8.9-4-8.9-8.9c0-4.9,4-8.9,8.9-8.9C508.4,112.1,512.4,116,512.4,120.9
	z"/>
<path class="st1" d="M732.9,120.9c0,4.9-4,8.9-8.9,8.9c-4.9,0-8.9-4-8.9-8.9c0-4.9,4-8.9,8.9-8.9C729,112.1,732.9,116,732.9,120.9z"
	/>
<polygon class="st1" points="503.5,88.6 512.6,104.2 494.5,104.2 "/>
<polygon class="st1" points="282.6,88.6 291.6,104.2 273.6,104.2 "/>
<polygon class="st1" points="724.1,88.6 733.1,104.2 715.1,104.2 "/>
<text transform="matrix(1 0 0 1 420.1973 185.9766)" class="st1 st2 st3"> </text>
<text transform="matrix(1 0 0 1 426.8965 204.3711)" class="st1 st2 st3"> </text>
<path class="st1" d="M291.5,120.9c0,4.9-4,8.9-8.9,8.9c-4.9,0-8.9-4-8.9-8.9c0-4.9,4-8.9,8.9-8.9C287.5,112.1,291.5,116,291.5,120.9
	z"/>
<path class="st1" d="M67.4,172.2c2.3,0,4.2-1.9,4.2-4.2c0-2.3-1.9-4.2-4.2-4.2c-2.3,0-4.2,1.9-4.2,4.2
	C63.2,170.4,65.1,172.2,67.4,172.2z M67.4,166.3c1,0,1.8,0.8,1.8,1.8s-0.8,1.8-1.8,1.8c-1,0-1.8-0.8-1.8-1.8S66.4,166.3,67.4,166.3z
	"/>
<path class="st1" d="M73.9,176.4c0,2.3,1.9,4.2,4.2,4.2s4.2-1.9,4.2-4.2c0-2.3-1.9-4.2-4.2-4.2S73.9,174.1,73.9,176.4z M79.9,176.4
	c0,1-0.8,1.8-1.8,1.8s-1.8-0.8-1.8-1.8s0.8-1.8,1.8-1.8S79.9,175.4,79.9,176.4z"/>
<path class="st1" d="M66.7,180c0.5,0.4,1.3,0.3,1.7-0.2c0,0,0,0,0,0l10.1-13.7c0.4-0.5,0.3-1.3-0.2-1.7c-0.5-0.4-1.3-0.3-1.7,0.2
	l0,0l-10.1,13.7C66.1,178.9,66.2,179.7,66.7,180C66.7,180,66.7,180,66.7,180z"/>
<path class="st1" d="M48.4,174c-1.7,0-10.1,0.2-10.1,3.6c0,3.4,8.4,3.6,10.1,3.6s10.1-0.2,10.1-3.6C58.5,174.2,50.1,174,48.4,174z
	 M48.4,178.8c-4,0-6.5-0.7-7.5-1.2c0.9-0.5,3.5-1.2,7.5-1.2s6.5,0.7,7.5,1.2C54.9,178.1,52.4,178.8,48.4,178.8z"/>
<path class="st1" d="M57.3,180.3c-0.6,0-1.1,0.4-1.2,1c-0.5,0.5-3.2,1.4-7.7,1.4s-7.2-0.9-7.7-1.4c-0.1-0.7-0.6-1.1-1.3-1.1
	s-1.1,0.6-1.1,1.3c0,3.4,8.4,3.6,10.1,3.6s10.1-0.2,10.1-3.6C58.5,180.8,58,180.3,57.3,180.3z"/>
<path class="st1" d="M57.3,184.4c-0.6,0-1.1,0.4-1.2,1c-0.5,0.5-3.2,1.4-7.7,1.4s-7.2-0.9-7.7-1.4c-0.1-0.7-0.6-1.1-1.3-1.1
	c-0.7,0.1-1.1,0.6-1.1,1.3c0,3.4,8.4,3.6,10.1,3.6s10.1-0.2,10.1-3.6C58.5,185,58,184.4,57.3,184.4z"/>
<path class="st1" d="M57.3,188.6c-0.6,0-1.1,0.4-1.2,1c-0.5,0.5-3.2,1.4-7.7,1.4s-7.2-0.9-7.7-1.4c-0.1-0.7-0.6-1.1-1.3-1.1
	c-0.7,0.1-1.1,0.6-1.1,1.3c0,3.4,8.4,3.6,10.1,3.6s10.1-0.2,10.1-3.6C58.5,189.1,58,188.6,57.3,188.6z"/>
<path class="st1" d="M57.3,192.8c-0.6,0-1.1,0.4-1.2,1c-0.5,0.5-3.2,1.4-7.7,1.4s-7.2-0.9-7.7-1.4c-0.1-0.7-0.6-1.1-1.3-1.1
	c-0.7,0.1-1.1,0.6-1.1,1.3c0,3.4,8.4,3.6,10.1,3.6s10.1-0.2,10.1-3.6C58.5,193.3,58,192.8,57.3,192.8z"/>
<path class="st1" d="M57.3,196.9c-0.6,0-1.1,0.4-1.2,1c-0.5,0.5-3.2,1.4-7.7,1.4s-7.2-0.9-7.7-1.4c-0.1-0.7-0.6-1.1-1.3-1.1
	c-0.7,0.1-1.1,0.6-1.1,1.3c0,3.4,8.4,3.6,10.1,3.6s10.1-0.2,10.1-3.6C58.5,197.5,58,196.9,57.3,196.9z"/>
<path class="st1" d="M73.4,192.5c1.7,0,10.1-0.2,10.1-3.6c0-3.4-8.4-3.6-10.1-3.6s-10.1,0.2-10.1,3.6
	C63.2,192.3,71.7,192.5,73.4,192.5z M73.4,187.7c4,0,6.5,0.7,7.5,1.2c-0.9,0.5-3.5,1.2-7.5,1.2s-6.5-0.7-7.5-1.2
	C66.8,188.4,69.4,187.7,73.4,187.7z"/>
<path class="st1" d="M82.3,191.6c-0.6,0-1.1,0.4-1.2,1c-0.5,0.5-3.2,1.4-7.7,1.4s-7.2-0.9-7.7-1.4c-0.1-0.7-0.6-1.1-1.3-1.1
	c-0.7,0.1-1.1,0.6-1.1,1.3c0,3.4,8.4,3.6,10.1,3.6s10.1-0.2,10.1-3.6C83.5,192.1,82.9,191.6,82.3,191.6z"/>
<path class="st1" d="M82.3,195.7c-0.6,0-1.1,0.4-1.2,1c-0.5,0.5-3.2,1.4-7.7,1.4s-7.2-0.9-7.7-1.4c-0.1-0.7-0.6-1.1-1.3-1.1
	c-0.7,0.1-1.1,0.6-1.1,1.3c0,3.4,8.4,3.6,10.1,3.6s10.1-0.2,10.1-3.6C83.5,196.3,82.9,195.7,82.3,195.7z"/>
<path class="st1" d="M82.3,199.9c-0.6,0-1.1,0.4-1.2,1c-0.5,0.5-3.2,1.4-7.7,1.4s-7.2-0.9-7.7-1.4c-0.1-0.7-0.6-1.1-1.3-1.1
	c-0.7,0.1-1.1,0.6-1.1,1.3c0,3.4,8.4,3.6,10.1,3.6s10.1-0.2,10.1-3.6C83.5,200.4,82.9,199.9,82.3,199.9z"/>
<path class="st4" d="M274,173.8c0.1,0,0.2,0,0.3-0.1c0.6-0.5,1.2-0.9,1.9-1.2c0.2-0.1,0.3-0.4,0.2-0.6c-0.1-0.2-0.4-0.3-0.6-0.2
	c-0.7,0.4-1.4,0.8-2,1.3c-0.2,0.2-0.2,0.4-0.1,0.6C273.7,173.8,273.8,173.8,274,173.8z"/>
<path class="st4" d="M268.9,181.4c0,0,0.1,0,0.1,0c0.2,0,0.4-0.1,0.4-0.3c0.2-0.7,0.4-1.4,0.7-2.1c0.1-0.2,0-0.5-0.2-0.6
	c-0.2-0.1-0.5,0-0.6,0.2c-0.3,0.7-0.6,1.5-0.8,2.3C268.5,181.1,268.7,181.3,268.9,181.4z"/>
<path class="st4" d="M282.6,170.9c0.7,0,1.5,0.1,2.2,0.2c0,0,0,0,0.1,0c0.2,0,0.4-0.2,0.4-0.4c0-0.2-0.1-0.5-0.4-0.5
	c-0.8-0.1-1.6-0.2-2.4-0.2h-0.1c-0.3,0-0.4,0.2-0.4,0.5S282.3,170.9,282.6,170.9z"/>
<path class="st4" d="M277.6,171.3c0.1,0.2,0.2,0.3,0.4,0.3c0,0,0.1,0,0.1,0c0.7-0.2,1.4-0.4,2.2-0.6c0.2,0,0.4-0.3,0.4-0.5
	c0-0.2-0.3-0.4-0.5-0.4c-0.8,0.1-1.6,0.3-2.3,0.6C277.6,170.8,277.5,171.1,277.6,171.3z"/>
<path class="st4" d="M269.8,190.4c0.1,0,0.1,0,0.2,0c0.2-0.1,0.3-0.4,0.2-0.6c-0.3-0.7-0.5-1.4-0.7-2.1c-0.1-0.2-0.3-0.4-0.6-0.3
	c-0.2,0.1-0.4,0.3-0.3,0.6c0.2,0.8,0.5,1.5,0.8,2.2C269.5,190.3,269.6,190.4,269.8,190.4z"/>
<path class="st4" d="M270.6,177.1c0.1,0,0.2,0.1,0.2,0.1c0.1,0,0.3-0.1,0.4-0.2c0.4-0.6,0.9-1.2,1.4-1.8c0.2-0.2,0.2-0.5,0-0.6
	c-0.2-0.2-0.5-0.2-0.6,0c-0.5,0.6-1,1.2-1.5,1.9C270.4,176.7,270.4,177,270.6,177.1z"/>
<path class="st4" d="M272,194.1c0.1,0.1,0.2,0.1,0.3,0.1c0.1,0,0.2,0,0.3-0.1c0.2-0.2,0.2-0.5,0-0.6c-0.5-0.5-1-1.1-1.4-1.8
	c-0.1-0.2-0.4-0.3-0.6-0.1c-0.2,0.1-0.3,0.4-0.1,0.6C271,192.9,271.5,193.5,272,194.1z"/>
<path class="st4" d="M275.7,197c0.1,0,0.1,0.1,0.2,0.1c0.2,0,0.3-0.1,0.4-0.2c0.1-0.2,0-0.5-0.2-0.6c-0.7-0.4-1.3-0.8-1.9-1.2
	c-0.2-0.2-0.5-0.1-0.6,0.1c-0.2,0.2-0.1,0.5,0.1,0.6C274.4,196.2,275,196.6,275.7,197z"/>
<path class="st4" d="M294.2,192.4c0.1,0,0.3-0.1,0.4-0.2c0.4-0.7,0.8-1.4,1.1-2.1c0.1-0.2,0-0.5-0.2-0.6c-0.2-0.1-0.5,0-0.6,0.2
	c-0.3,0.7-0.7,1.3-1.1,2c-0.1,0.2-0.1,0.5,0.1,0.6C294.1,192.4,294.2,192.4,294.2,192.4z"/>
<path class="st4" d="M296.5,185c-0.3,0-0.5,0.2-0.5,0.4c-0.1,0.7-0.2,1.5-0.4,2.2c-0.1,0.2,0.1,0.5,0.3,0.6c0,0,0.1,0,0.1,0
	c0.2,0,0.4-0.1,0.4-0.3c0.2-0.8,0.3-1.6,0.4-2.3C296.9,185.3,296.7,185,296.5,185z"/>
<path class="st4" d="M268.2,183.2c0,0.4,0,0.8,0,1.1c0,0.4,0,0.8,0.1,1.2c0,0.2,0.2,0.4,0.5,0.4c0,0,0,0,0,0c0.3,0,0.4-0.2,0.4-0.5
	c0-0.4,0-0.8,0-1.2c0-0.4,0-0.7,0-1.1c0-0.2-0.2-0.5-0.4-0.5C268.4,182.8,268.2,183,268.2,183.2z"/>
<path class="st4" d="M289.2,172.5c0.2,0,0.3-0.1,0.4-0.2c0.1-0.2,0-0.5-0.2-0.6c-0.7-0.4-1.4-0.7-2.2-1c-0.2-0.1-0.5,0-0.6,0.3
	c-0.1,0.2,0,0.5,0.3,0.6c0.7,0.2,1.4,0.5,2,0.9C289.1,172.5,289.1,172.5,289.2,172.5z"/>
<path class="st4" d="M284.8,197.6c-0.7,0.1-1.5,0.2-2.2,0.2c-0.3,0-0.5,0.2-0.5,0.5c0,0.3,0.2,0.5,0.5,0.5h0c0.8,0,1.6-0.1,2.4-0.2
	c0.2,0,0.4-0.3,0.4-0.5C285.3,197.8,285.1,197.6,284.8,197.6z"/>
<path class="st4" d="M294.9,178.9c0.1,0.2,0.2,0.3,0.4,0.3c0.1,0,0.1,0,0.2,0c0.2-0.1,0.3-0.4,0.2-0.6c-0.3-0.7-0.7-1.4-1.1-2.1
	c-0.1-0.2-0.4-0.3-0.6-0.1c-0.2,0.1-0.3,0.4-0.1,0.6C294.3,177.6,294.6,178.2,294.9,178.9z"/>
<path class="st4" d="M292.5,193.5c-0.5,0.5-1.1,1.1-1.6,1.5c-0.2,0.2-0.2,0.4-0.1,0.6c0.1,0.1,0.2,0.2,0.4,0.2c0.1,0,0.2,0,0.3-0.1
	c0.6-0.5,1.2-1,1.7-1.6c0.2-0.2,0.2-0.5,0-0.6C293,193.3,292.7,193.3,292.5,193.5z"/>
<path class="st4" d="M289,196.2c-0.7,0.4-1.3,0.7-2,0.9c-0.2,0.1-0.4,0.3-0.3,0.6c0.1,0.2,0.2,0.3,0.4,0.3c0,0,0.1,0,0.1,0
	c0.7-0.3,1.5-0.6,2.2-1c0.2-0.1,0.3-0.4,0.2-0.6C289.5,196.2,289.2,196.1,289,196.2z"/>
<path class="st4" d="M296,180.5c-0.2,0.1-0.4,0.3-0.3,0.6c0.2,0.7,0.3,1.5,0.4,2.2c0,0.2,0.2,0.4,0.5,0.4c0,0,0,0,0,0
	c0.2,0,0.4-0.2,0.4-0.5c-0.1-0.8-0.2-1.6-0.4-2.3C296.5,180.6,296.2,180.4,296,180.5z"/>
<path class="st4" d="M290.8,173.1c-0.2,0.2-0.1,0.5,0.1,0.6c0.6,0.5,1.1,1,1.6,1.5c0.1,0.1,0.2,0.1,0.3,0.1c0.1,0,0.2,0,0.3-0.1
	c0.2-0.2,0.2-0.5,0-0.6c-0.5-0.6-1.1-1.1-1.7-1.6C291.2,172.8,290.9,172.9,290.8,173.1z"/>
<path class="st4" d="M278.2,197.1c-0.2-0.1-0.5,0-0.6,0.3c-0.1,0.2,0,0.5,0.3,0.6c0.7,0.3,1.5,0.4,2.3,0.6c0,0,0,0,0.1,0
	c0.2,0,0.4-0.2,0.4-0.4c0-0.2-0.1-0.5-0.4-0.5C279.6,197.5,278.9,197.4,278.2,197.1z"/>
<path class="st4" d="M280.2,180.1h7c0.3,0,0.5-0.2,0.5-0.5c0-0.3-0.2-0.5-0.5-0.5H283v-2.6c0-0.3-0.2-0.5-0.5-0.5
	c-0.3,0-0.5,0.2-0.5,0.5v2.6h-1.9c-1.5,0-2.8,1.3-2.8,2.8c0,1.5,1.3,2.8,2.8,2.8h1.8h1h1.9c1,0,1.9,0.8,1.9,1.9s-0.8,1.9-1.9,1.9h-7
	c-0.3,0-0.5,0.2-0.5,0.5c0,0.3,0.2,0.5,0.5,0.5h4.2v2.6c0,0.3,0.2,0.5,0.5,0.5c0.3,0,0.5-0.2,0.5-0.5v-2.6h1.9
	c1.5,0,2.8-1.3,2.8-2.8c0-1.5-1.3-2.8-2.8-2.8H283h-1h-1.8c-1,0-1.9-0.8-1.9-1.9S279.2,180.1,280.2,180.1z"/>
<path class="st4" d="M263.3,176c0.1,0,0.1,0,0.2,0c0.2,0,0.3-0.1,0.4-0.3c0.3-0.7,0.7-1.3,1-2c0.1-0.2,0.1-0.5-0.2-0.6
	c-0.2-0.1-0.5-0.1-0.6,0.2c-0.4,0.7-0.8,1.4-1.1,2C262.9,175.6,263,175.9,263.3,176z"/>
<path class="st4" d="M276.8,164.6c0,0,0.1,0,0.1,0c0.7-0.2,1.4-0.4,2.2-0.5c0.2,0,0.4-0.3,0.4-0.5s-0.3-0.4-0.5-0.4
	c-0.8,0.1-1.5,0.3-2.3,0.5c-0.2,0.1-0.4,0.3-0.3,0.6C276.4,164.4,276.6,164.6,276.8,164.6z"/>
<path class="st4" d="M274.8,165.3c0.2-0.1,0.3-0.4,0.3-0.6c-0.1-0.2-0.4-0.3-0.6-0.2c-0.7,0.3-1.4,0.6-2.1,1
	c-0.2,0.1-0.3,0.4-0.2,0.6c0.1,0.2,0.2,0.2,0.4,0.2c0.1,0,0.1,0,0.2-0.1C273.5,165.9,274.2,165.5,274.8,165.3z"/>
<path class="st4" d="M261.5,184.8c0.3,0,0.5-0.2,0.5-0.5c0-0.7,0-1.5,0.1-2.2c0-0.2-0.2-0.5-0.4-0.5c-0.3,0-0.5,0.2-0.5,0.4
	c-0.1,0.8-0.1,1.5-0.1,2.3C261.1,184.6,261.3,184.8,261.5,184.8z"/>
<path class="st4" d="M262.8,177.2c-0.2-0.1-0.5,0-0.6,0.3c-0.2,0.7-0.5,1.5-0.6,2.2c-0.1,0.2,0.1,0.5,0.3,0.5c0,0,0.1,0,0.1,0
	c0.2,0,0.4-0.1,0.4-0.4c0.2-0.7,0.4-1.4,0.6-2.1C263.1,177.6,263,177.3,262.8,177.2z"/>
<path class="st4" d="M271.1,166.7c-0.1-0.2-0.4-0.3-0.6-0.1c-0.6,0.4-1.3,0.9-1.8,1.4c-0.2,0.2-0.2,0.4,0,0.6
	c0.1,0.1,0.2,0.2,0.3,0.2c0.1,0,0.2,0,0.3-0.1c0.6-0.5,1.2-0.9,1.8-1.4C271.2,167.2,271.2,166.9,271.1,166.7z"/>
<path class="st4" d="M266.1,171.9c0.4-0.6,0.9-1.2,1.4-1.7c0.2-0.2,0.2-0.5,0-0.6c-0.2-0.2-0.5-0.2-0.6,0c-0.5,0.6-1,1.2-1.5,1.8
	c-0.2,0.2-0.1,0.5,0.1,0.6c0.1,0.1,0.2,0.1,0.3,0.1C265.9,172.1,266.1,172.1,266.1,171.9z"/>
<path class="st4" d="M282.6,162.9L282.6,162.9c-0.4,0-0.9,0-1.3,0c-0.3,0-0.4,0.2-0.4,0.5c0,0.2,0.2,0.4,0.5,0.4c0,0,0,0,0,0
	c0.4,0,0.8,0,1.2,0c0,0,0,0,0,0h21c0.2,0,0.3-0.1,0.4-0.3c0.1-0.2,0-0.4-0.1-0.5l-2-2c-0.2-0.2-0.5-0.2-0.6,0
	c-0.2,0.2-0.2,0.5,0,0.6l1.3,1.3L282.6,162.9L282.6,162.9z"/>
<path class="st4" d="M301.2,172.8c0.1,0.1,0.2,0.1,0.3,0.1c0.1,0,0.2,0,0.3-0.1l2-2c0.1-0.1,0.2-0.3,0.1-0.5
	c-0.1-0.2-0.2-0.3-0.4-0.3h-7.1c-0.3,0-0.5,0.2-0.5,0.5s0.2,0.5,0.5,0.5h6l-1.3,1.3C301.1,172.3,301.1,172.6,301.2,172.8z"/>
<path class="st4" d="M261.1,198.5c0.1,0.2,0.2,0.3,0.4,0.3h7.1c0.3,0,0.5-0.2,0.5-0.5s-0.2-0.5-0.5-0.5h-6l1.3-1.3
	c0.2-0.2,0.2-0.5,0-0.6s-0.5-0.2-0.6,0l-2,2C261.1,198.1,261,198.3,261.1,198.5z"/>
<path class="st4" d="M283.8,204.9c-0.4,0-0.8,0-1.2,0c0,0,0,0,0,0h-21c-0.2,0-0.3,0.1-0.4,0.3c-0.1,0.2,0,0.4,0.1,0.5l2,2
	c0.1,0.1,0.2,0.1,0.3,0.1s0.2,0,0.3-0.1c0.2-0.2,0.2-0.5,0-0.6l-1.3-1.3h19.9c0,0,0,0,0,0c0,0,0,0,0,0c0.4,0,0.9,0,1.3,0
	c0.3,0,0.4-0.2,0.4-0.5C284.3,205.1,284.1,204.9,283.8,204.9z"/>
<path class="st4" d="M288.2,204.1c-0.7,0.2-1.4,0.4-2.2,0.5c-0.2,0-0.4,0.3-0.4,0.5c0,0.2,0.2,0.4,0.4,0.4c0,0,0.1,0,0.1,0
	c0.8-0.1,1.5-0.3,2.3-0.5c0.2-0.1,0.4-0.3,0.3-0.6C288.7,204.2,288.4,204.1,288.2,204.1z"/>
<path class="st4" d="M303.2,188.4c-0.2-0.1-0.5,0.1-0.5,0.3c-0.2,0.7-0.4,1.4-0.6,2.1c-0.1,0.2,0,0.5,0.3,0.6c0,0,0.1,0,0.1,0
	c0.2,0,0.4-0.1,0.4-0.3c0.2-0.7,0.5-1.5,0.6-2.2C303.6,188.7,303.5,188.5,303.2,188.4z"/>
<path class="st4" d="M301.9,192.7c-0.2-0.1-0.5,0-0.6,0.2c-0.3,0.7-0.7,1.3-1,2c-0.1,0.2-0.1,0.5,0.2,0.6c0.1,0,0.2,0.1,0.2,0.1
	c0.2,0,0.3-0.1,0.4-0.2c0.4-0.7,0.8-1.4,1.1-2C302.2,193.1,302.1,192.8,301.9,192.7z"/>
<path class="st4" d="M292.3,202.5c-0.6,0.3-1.3,0.7-2,0.9c-0.2,0.1-0.3,0.4-0.3,0.6c0.1,0.2,0.2,0.3,0.4,0.3c0.1,0,0.1,0,0.2,0
	c0.7-0.3,1.4-0.6,2.1-1c0.2-0.1,0.3-0.4,0.2-0.6C292.8,202.4,292.5,202.4,292.3,202.5z"/>
<path class="st4" d="M299,196.7c-0.4,0.6-0.9,1.2-1.4,1.7c-0.2,0.2-0.2,0.5,0,0.6c0.1,0.1,0.2,0.1,0.3,0.1c0.1,0,0.2,0,0.3-0.1
	c0.5-0.6,1-1.2,1.5-1.8c0.2-0.2,0.1-0.5-0.1-0.6C299.4,196.5,299.1,196.5,299,196.7z"/>
<path class="st4" d="M303.6,183.9c-0.3,0-0.5,0.2-0.5,0.5c0,0.7,0,1.5-0.1,2.2c0,0.2,0.2,0.5,0.4,0.5c0,0,0,0,0,0
	c0.2,0,0.4-0.2,0.5-0.4c0.1-0.8,0.1-1.5,0.1-2.3C304.1,184.1,303.8,183.9,303.6,183.9z"/>
<path class="st4" d="M295.9,200c-0.6,0.5-1.2,0.9-1.8,1.4c-0.2,0.1-0.3,0.4-0.1,0.6c0.1,0.1,0.2,0.2,0.4,0.2c0.1,0,0.2,0,0.3-0.1
	c0.6-0.4,1.3-0.9,1.8-1.4c0.2-0.2,0.2-0.4,0-0.6C296.4,199.8,296.1,199.8,295.9,200z"/>
<g>
	<path class="st1" d="M421,67.7l-9.5-8.4c-0.2-0.2-0.5-0.3-0.8-0.2l-6.3,1.7c-0.4,0.1-0.6,0.4-0.7,0.8l-0.2,1.4l-3.1-0.8l0-7.4
		l3.3,3l3-3.3l-19.1-17.4l-8.5,7.6v-3.5h-4.5v7.6l-6.2,5.6l2.9,3.3l3.3-3l0,22.6l5.6,0V65h5.4v12.2l14.8,0l0-14.1l3,0.7l-0.5,4.1
		c0,0.3,0.1,0.6,0.3,0.8l9.4,8.3c0.2,0.2,0.4,0.2,0.6,0.2c0.3,0,0.5-0.1,0.7-0.3l7.1-8c0.2-0.2,0.2-0.4,0.2-0.7
		C421.3,68.1,421.2,67.8,421,67.7z M385.6,60h-5.4v-5.6h5.4V60z M394.9,60h-5.4v-5.6h5.4V60z M413.2,75l-8.4-7.3l0.4-3.4l1.4,0.3
		c0.1,0.6,0.5,1.2,1.1,1.3c0.8,0.2,1.6-0.3,1.8-1.1c0.2-0.8-0.3-1.6-1.1-1.8c-0.6-0.1-1.2,0.1-1.5,0.6l-1.6-0.4l0.1-1l5.2-1.4
		l8.5,7.5L413.2,75z"/>
</g>
<g>
	<path class="st5" d="M190,41.4l-15.2,15.3c-0.3,0.3-0.3,0.8,0,1.1L190.1,73c0.2,0.2,0.3,0.2,0.5,0.2c0.2,0,0.4-0.1,0.5-0.2
		c4.2-4.2,6.5-9.8,6.5-15.8s-2.3-11.5-6.5-15.8C190.9,41.1,190.3,41.1,190,41.4z M190.6,71.3l-14.1-14.1l14.1-14.1
		c3.6,3.9,5.6,8.8,5.6,14.2C196.2,62.4,194.2,67.5,190.6,71.3z"/>
	<path class="st5" d="M168.9,79.5c6,0,11.6-2.3,15.8-6.6c0.3-0.3,0.3-0.8,0-1.1L170,57.1l14.7-14.7c0.3-0.3,0.3-0.8,0-1.1
		c-4.2-4.1-9.8-6.4-15.8-6.4c-12.3,0-22.3,10-22.3,22.3S156.6,79.5,168.9,79.5z M168.9,36.4c5.3,0,10.3,1.9,14.1,5.6l-14.6,14.6
		c-0.2,0.2-0.2,0.3-0.2,0.5c0,0.2,0.1,0.4,0.2,0.5l14.7,14.7c-3.9,3.6-8.8,5.6-14.2,5.6c-11.5,0-20.8-9.3-20.8-20.8
		S157.4,36.4,168.9,36.4z"/>
	<path class="st1" d="M190.2,54.8l0.8-1.1c-0.8-0.5-1.6-0.9-2.6-0.9v-0.6h-0.8v0.6c-1.5,0.1-2.6,1-2.6,2.5c0,1.5,1.1,2.1,2.6,2.5V60
		c-0.7-0.1-1.4-0.5-2.1-1.1l-0.9,1.1c0.9,0.8,1.9,1.2,3,1.3v0.9h0.8v-0.9c1.5-0.1,2.7-0.9,2.7-2.5c0-1.6-1.2-2.2-2.7-2.5l0,0v-2.3
		C189.1,54.2,189.6,54.4,190.2,54.8z M187.7,56.2c-0.7-0.2-1.2-0.5-1.2-1.1s0.5-0.9,1.2-1V56.2z M189.7,59c0,0.6-0.6,1-1.2,1v-2.2
		C189.2,58,189.7,58.3,189.7,59z"/>
	<path class="st1" d="M157.9,68.8l-1.1,1.3c1.1,0.9,2.3,1.5,3.8,1.6v1.1h1v-1.1c1.9-0.1,3.5-1.2,3.5-3.1c0-2-1.5-2.7-3.4-3.2h-0.1
		v-2.9c0.8,0.1,1.5,0.4,2.2,0.9l1-1.4c-1-0.7-2.1-1.1-3.2-1.2v-0.8h-1v0.8c-1.9,0.1-3.3,1.2-3.3,3.1c0,1.9,1.3,2.6,3.3,3.1V70
		C159.6,70,158.7,69.5,157.9,68.8z M161.4,67.4c0.9,0.3,1.6,0.5,1.6,1.5c0,0.9-0.8,1.2-1.6,1.3V67.4z M159,63.9
		c0-0.8,0.7-1.2,1.5-1.2v2.6C159.7,65,159,64.8,159,63.9z"/>
</g>
<path class="st1" d="M742.6,206.3h-11.4c-0.8,0-1.4-0.6-1.4-1.4v-14.2c0-0.8,0.6-1.4,1.4-1.4h11.4c0.8,0,1.4,0.6,1.4,1.4v14.2
	C744,205.6,743.4,206.3,742.6,206.3z M741.2,203.4V192h-8.5v11.4H741.2z M717,206.3h-11.4c-0.8,0-1.4-0.6-1.4-1.4v-14.2
	c0-0.8,0.6-1.4,1.4-1.4H717c0.8,0,1.4,0.6,1.4,1.4v14.2C718.4,205.6,717.7,206.3,717,206.3z M715.5,203.4V192H707v11.4H715.5z
	 M712.7,181.5L712.7,181.5l1.1-1.1c0.6-0.6,1.5-0.6,2,0c0.6,0.6,0.6,1.5,0,2l-3.6,3.6c-0.6,0.6-1.5,0.6-2,0l-3.6-3.6
	c-0.6-0.6-0.6-1.5,0-2c0.6-0.6,1.5-0.6,2,0l1.1,1.1v-7.2c0-3.1,2.6-5.7,5.7-5.7h7.1v-9.3c0-0.8,0.6-1.4,1.4-1.4
	c0.8,0,1.4,0.6,1.4,1.4v9.3h7.1c3.2,0,5.7,2.5,5.7,5.7v7.2l1.1-1.1c0.6-0.6,1.5-0.6,2,0c0.6,0.6,0.6,1.5,0,2l-3.6,3.6
	c-0.6,0.6-1.5,0.6-2,0l-3.6-3.6c-0.6-0.6-0.6-1.5,0-2c0.6-0.6,1.5-0.6,2,0l1.1,1.1v-7.2c0-1.6-1.3-2.8-2.9-2.8h-17.1
	c-1.6,0-2.9,1.3-2.9,2.8V181.5z"/>
<path class="st1" d="M482.5,179.8v21.1l5.6,5.6h33.4v-21.9l-22-22L482.5,179.8z M487.4,202.4l-2.4-2.4v-16.7l2.4,2.4V202.4z
	 M504.4,171.1l14.6,14.6v18.4h-29.3v-18.4L504.4,171.1z M488.6,183.5l-3.2-3.1l14.2-14.2l3.2,3.2L488.6,183.5z"/>
<path class="st1" d="M499.3,197.8c-2.8-2.8-2.8-7.5,0-10.3l1.7,1.7V184h-3h-2.1l1.5,1.5l0.2,0.2c-0.2,0.2-0.4,0.4-0.6,0.7
	c-1.2,1.4-1.9,3.1-2.1,4.8c-0.4,2.9,0.5,6.1,2.7,8.3L499.3,197.8z"/>
<path class="st1" d="M511.3,199.5c3.8-3.8,3.8-10,0-13.8l-1.7,1.7c2.8,2.8,2.8,7.5,0,10.3l-1.7-1.7v5.2h5.2L511.3,199.5z"/>
<path class="st1" d="M522.7,160.8h-2.4v2.4c-2,0-3.7,1.7-3.7,3.7c0,2,1.7,3.7,3.7,3.7h2.4c0.7,0,1.2,0.5,1.2,1.2s-0.5,1.2-1.2,1.2
	h-2.4h-3.7v2.4h3.7v2.4h2.4v-2.4c2,0,3.7-1.7,3.7-3.7s-1.7-3.7-3.7-3.7h-2.4c-0.7,0-1.2-0.5-1.2-1.2c0-0.7,0.5-1.2,1.2-1.2h2.4h3.7
	v-2.4h-3.7V160.8z"/>
<g>
	<path class="st1" d="M590.8,75.8h9c1.4,0,2.5-1.1,2.5-2.5v0l8.6,2.9c1.3,0.4,2.6,0.6,3.9,0.6c1.8,0,3.7-0.4,5.4-1.2l13.5-6.6
		c0.8-0.4,1.5-1.1,1.8-2c0.3-0.9,0.2-1.8-0.2-2.7c-0.8-1.7-2.9-2.4-4.7-1.6l-7.7,3.8c-0.4-1.6-1.8-2.8-3.5-2.8h-5.4l-1.9-1
		c-1.8-1-3.9-1.5-5.9-1.5h-4v-0.1c0-1.4-1.1-2.5-2.5-2.5h-9c-1.4,0-2.5,1.1-2.5,2.5v12.2C588.4,74.7,589.5,75.8,590.8,75.8z
		 M590.5,61.2c0-0.2,0.2-0.4,0.4-0.4h9c0.2,0,0.4,0.2,0.4,0.4v6.6c0,0.6,0.5,1.1,1.1,1.1c0.6,0,1.1-0.5,1.1-1.1v-4.5h4
		c1.7,0,3.4,0.4,4.9,1.2l2.1,1.1c0,0,0,0,0,0c0,0,0.1,0,0.1,0.1c0,0,0.1,0,0.1,0c0,0,0.1,0,0.2,0c0,0,0.1,0,0.1,0c0,0,0,0,0,0h5.7
		c0.8,0,1.5,0.7,1.5,1.5c0,0.8-0.7,1.5-1.5,1.5h-7.9c-0.6,0-1.1,0.5-1.1,1.1c0,0.6,0.5,1.1,1.1,1.1h7.9c1.4,0,2.6-0.8,3.2-2l9-4.4
		c0.7-0.3,1.5,0,1.8,0.6c0.2,0.3,0.2,0.7,0.1,1.1c-0.1,0.3-0.4,0.6-0.7,0.8l-13.5,6.6c-2.4,1.2-5.2,1.3-7.8,0.5l-9.3-3.1v-0.6
		c0-0.6-0.5-1.1-1.1-1.1c-0.6,0-1.1,0.5-1.1,1.1v2.8c0,0.2-0.2,0.4-0.4,0.4h-9c-0.2,0-0.4-0.2-0.4-0.4V61.2z"/>
	<path class="st1" d="M601.8,49.9c0.2,0,0.5-0.1,0.7-0.3l1.4-1.2v11c0,0.6,0.5,1.1,1.1,1.1c0.6,0,1.1-0.5,1.1-1.1V46.6l11.7-10.1
		l11.7,10.1V61c0,0.6,0.5,1.1,1.1,1.1c0.6,0,1.1-0.5,1.1-1.1V48.5l1.4,1.2c0.4,0.4,1.1,0.3,1.5-0.1c0.4-0.4,0.3-1.1-0.1-1.5
		l-4.1-3.6v-7.7c0-0.6-0.5-1.1-1.1-1.1h-3.9c-0.6,0-1.1,0.5-1.1,1.1v2.5l-5.7-4.9c-0.4-0.3-1-0.3-1.4,0l-15.9,13.7
		c-0.4,0.4-0.5,1-0.1,1.5C601.2,49.8,601.5,49.9,601.8,49.9z M626.2,37.9h1.8v4.8l-1.8-1.6V37.9z"/>
	<path class="st1" d="M617.7,59.5c0.6,0,1.1-0.5,1.1-1.1v-0.8c1.4-0.4,2.4-1.5,2.4-2.9c0-1.7-1.5-3.1-3.4-3.1
		c-0.7,0-1.3-0.4-1.3-0.9s0.6-0.9,1.3-0.9c0.7,0,1.2,0.4,1.3,0.8c0.1,0.6,0.7,0.9,1.3,0.8c0.6-0.1,0.9-0.7,0.8-1.3
		c-0.3-1.1-1.2-1.9-2.3-2.2v-0.8c0-0.6-0.5-1.1-1.1-1.1c-0.6,0-1.1,0.5-1.1,1.1v0.8c-1.4,0.4-2.4,1.5-2.4,2.9c0,1.7,1.5,3.1,3.4,3.1
		c0.7,0,1.3,0.4,1.3,0.9c0,0.5-0.6,0.9-1.3,0.9c-0.7,0-1.2-0.4-1.3-0.7c-0.2-0.5-0.8-0.8-1.4-0.6c-0.5,0.2-0.8,0.8-0.6,1.4
		c0.4,0.9,1.2,1.6,2.2,1.9v0.8C616.6,59,617.1,59.5,617.7,59.5z"/>
	<path class="st1" d="M611.4,60.9c1.8,1.4,4,2.1,6.2,2.1c5.7,0,10.2-4.6,10.2-10.2c0-2.1-0.6-4.1-1.8-5.8c-0.3-0.5-1-0.6-1.5-0.3
		c-0.5,0.3-0.6,1-0.3,1.5c0.9,1.4,1.4,3,1.4,4.6c0,4.5-3.7,8.1-8.1,8.1c-1.8,0-3.5-0.6-5-1.7c-0.5-0.4-1.1-0.3-1.5,0.2
		C610.9,59.9,611,60.6,611.4,60.9z"/>
	<path class="st1" d="M624.3,46.3c0.4-0.5,0.3-1.1-0.2-1.5c-1.8-1.5-4.1-2.3-6.5-2.3c-5.7,0-10.2,4.6-10.2,10.2
		c0,2.1,0.6,4.2,1.9,5.9c0.2,0.3,0.5,0.4,0.9,0.4c0.2,0,0.4-0.1,0.6-0.2c0.5-0.3,0.6-1,0.3-1.5c-1-1.4-1.5-3-1.5-4.7
		c0-4.5,3.7-8.1,8.1-8.1c1.9,0,3.7,0.6,5.1,1.8C623.2,46.8,623.9,46.8,624.3,46.3z"/>
</g>
</svg>
