<svg xmlns="http://www.w3.org/2000/svg" viewBox="0 0 174.957 21.117">
	<defs>
		<style>
			.a{fill:#4d4d4d;} /* #151c1c */
			.b{fill:#8c8c8c;} /* #58c6a9 */
		</style>
	</defs>
	<g transform="translate(0 -0.001)">
		<g transform="translate(0 0.001)">
			<path class="a" d="M.027,31.524A4.032,4.032,0,0,1,1.69,28.25a7.006,7.006,0,0,1,4.488-1.32,7.5,7.5,0,0,1,4.58,1.295,4.446,4.446,0,0,1,1.847,3.537H8a1.281,1.281,0,0,0-.53-1.044,2.608,2.608,0,0,0-1.346-.276q-1.771,0-1.768,1.082,0,.976,2.163,1.346A17.652,17.652,0,0,1,10.5,34a3.454,3.454,0,0,1,2.163,3.326A4.011,4.011,0,0,1,10.9,40.7,7.3,7.3,0,0,1,6.441,42a7.772,7.772,0,0,1-4.488-1.228A4.494,4.494,0,0,1,0,37.145H4.618q.186,1.346,1.9,1.346a2.181,2.181,0,0,0,1.306-.37,1.122,1.122,0,0,0,.516-.949q0-.581-.859-.925a11.716,11.716,0,0,0-2.071-.581,23.154,23.154,0,0,1-2.442-.592A4.665,4.665,0,0,1,.884,33.833a3.178,3.178,0,0,1-.857-2.309Z" transform="translate(0 -20.887)"/>
			<path class="a" d="M72.347,42.009a7.128,7.128,0,0,1-5.28-2.071A7.482,7.482,0,0,1,65,34.435a7.019,7.019,0,0,1,7.347-7.5,7.568,7.568,0,0,1,5.386,2.006,7.254,7.254,0,0,1,2.139,5.57,9.137,9.137,0,0,1-.105,1.425H69.627A2.569,2.569,0,0,0,72.1,38.158a3.591,3.591,0,0,0,1.279-.171A2.282,2.282,0,0,0,74,37.644a4.636,4.636,0,0,0,.514-.568h4.883a6.47,6.47,0,0,1-2.534,3.566A7.554,7.554,0,0,1,72.347,42.009Zm1.925-10.567a2.868,2.868,0,0,0-1.867-.649,2.664,2.664,0,0,0-1.827.649,2.812,2.812,0,0,0-.925,1.676H75.17A2.4,2.4,0,0,0,74.273,31.442Z" transform="translate(-50.413 -20.895)"/>
			<path class="a" d="M153.737,27.64h4.513V42.368h-4.513V40.2a4.818,4.818,0,0,1-4.461,2.329,5.348,5.348,0,0,1-4.1-1.688,6.479,6.479,0,0,1-1.571-4.6V27.64h4.488v8a3.049,3.049,0,0,0,.752,2.2,3.147,3.147,0,0,0,4.145,0,3.031,3.031,0,0,0,.752-2.2Z" transform="translate(-111.375 -21.437)"/>
			<path class="b" d="M223.652,23.835a7.656,7.656,0,0,1-1.952-5.411A7.705,7.705,0,0,1,223.652,13a6.23,6.23,0,0,1,4.764-2.125,5,5,0,0,1,4.315,2.087V6.23h4.52V25.754h-4.52v-2.13a5.1,5.1,0,0,1-4.38,2.323A6.178,6.178,0,0,1,223.652,23.835Zm8.1-2.745a3.584,3.584,0,0,0,.976-2.693,3.531,3.531,0,0,0-.976-2.677,3.142,3.142,0,0,0-4.488,0,3.584,3.584,0,0,0-.978,2.693,3.538,3.538,0,0,0,.978,2.679,3.142,3.142,0,0,0,4.488-.013Z" transform="translate(-171.948 -4.832)"/>
			<path class="b" d="M311.4,4.54a2.677,2.677,0,0,1-3.748,0,2.567,2.567,0,0,1-.765-1.887,2.572,2.572,0,0,1,.765-1.887,2.677,2.677,0,0,1,3.748,0,2.563,2.563,0,0,1,.765,1.887A2.558,2.558,0,0,1,311.4,4.54Zm-4.116,16.382V6.2H311.8V20.931Z" transform="translate(-238.018 -0.001)"/>
			<path class="b" d="M350.883,27.089v2.163a4.822,4.822,0,0,1,4.461-2.323,5.344,5.344,0,0,1,4.1,1.69,6.481,6.481,0,0,1,1.571,4.594v8.6h-4.488v-8a3.044,3.044,0,0,0-.752-2.2,3.147,3.147,0,0,0-4.145,0,3.037,3.037,0,0,0-.752,2.2v8H346.37V27.089Z" transform="translate(-268.641 -20.887)"/>
			<path class="b" d="M433.213,6.23V13.2a4.822,4.822,0,0,1,4.461-2.323,5.34,5.34,0,0,1,4.1,1.69,6.5,6.5,0,0,1,1.571,4.594v8.6h-4.484v-8a3.044,3.044,0,0,0-.752-2.2,3.147,3.147,0,0,0-4.145,0,3.037,3.037,0,0,0-.752,2.2v8H428.7V6.239Z" transform="translate(-332.495 -4.832)"/>
			<path class="b" d="M513.546,42a7.126,7.126,0,0,1-5.278-2.071,7.453,7.453,0,0,1-2.058-5.5,7.357,7.357,0,0,1,2.044-5.464,7.193,7.193,0,0,1,5.292-2.033,7.558,7.558,0,0,1,5.386,2.006,7.269,7.269,0,0,1,2.136,5.57,9.144,9.144,0,0,1-.094,1.416H510.828a2.57,2.57,0,0,0,2.469,2.217,3.606,3.606,0,0,0,1.279-.171,2.262,2.262,0,0,0,.619-.343,4.618,4.618,0,0,0,.516-.568h4.883a6.474,6.474,0,0,1-2.538,3.577A7.543,7.543,0,0,1,513.546,42Zm1.928-10.567a2.872,2.872,0,0,0-1.874-.646,2.671,2.671,0,0,0-1.827.646,2.809,2.809,0,0,0-.922,1.676h5.516A2.406,2.406,0,0,0,515.474,31.434Z" transform="translate(-392.611 -20.887)"/>
			<path class="b" d="M588.11,4.54a2.677,2.677,0,0,1-3.748,0,2.559,2.559,0,0,1-.765-1.887A2.563,2.563,0,0,1,584.36.766a2.677,2.677,0,0,1,3.748,0,2.572,2.572,0,0,1,.765,1.887,2.568,2.568,0,0,1-.763,1.887Zm-4.118,16.382V6.2h4.513V20.931Z" transform="translate(-452.631 -0.001)"/>
			<path class="b" d="M627.625,27.089v2.745q1.571-2.9,4.221-2.9v4.594h-1.109a3.286,3.286,0,0,0-2.336.738,3.464,3.464,0,0,0-.776,2.587v6.968H623.11V27.089Z" transform="translate(-483.277 -20.887)"/>
			<path class="b" d="M670.508,39.917a7.161,7.161,0,0,1-2.228-5.489,7.058,7.058,0,0,1,2.217-5.451,8.36,8.36,0,0,1,10.96,0,7.08,7.08,0,0,1,2.206,5.451,7.233,7.233,0,0,1-2.188,5.489A7.625,7.625,0,0,1,676.013,42,7.749,7.749,0,0,1,670.508,39.917Zm7.668-2.718a3.85,3.85,0,0,0,.9-2.747,3.722,3.722,0,0,0-.925-2.731,2.969,2.969,0,0,0-2.19-.936,2.931,2.931,0,0,0-2.177.936,3.761,3.761,0,0,0-.911,2.731,3.747,3.747,0,0,0,.938,2.747,2.994,2.994,0,0,0,2.2.949A2.872,2.872,0,0,0,678.177,37.2Z" transform="translate(-518.311 -20.887)"/>
			<path class="a" d="M755.294,1.146a3.09,3.09,0,0,1,4.071,0,2.657,2.657,0,0,1,.781,1.984,2.671,2.671,0,0,1-.781,1.986,3.083,3.083,0,0,1-4.071,0,2.67,2.67,0,0,1-.781-1.986,2.657,2.657,0,0,1,.781-1.984Zm.312,3.678a2.639,2.639,0,0,0,3.445,0,2.3,2.3,0,0,0,.635-1.7,2.278,2.278,0,0,0-.635-1.692,2.668,2.668,0,0,0-3.445,0,2.287,2.287,0,0,0-.635,1.692,2.309,2.309,0,0,0,.628,1.7Zm.568-3.407h1.317a1.272,1.272,0,0,1,.9.3.958.958,0,0,1,.321.725,1.019,1.019,0,0,1-.175.561.978.978,0,0,1-.574.388l.812,1.362h-.949l-.734-1.3H757v1.3h-.812Zm.812.619v.8h.5a.384.384,0,0,0,.289-.11.4.4,0,0,0,.108-.292.4.4,0,0,0-.108-.292.384.384,0,0,0-.289-.11Z" transform="translate(-585.191 -0.296)"/>
		</g>
	</g>
</svg>