<svg xmlns="http://www.w3.org/2000/svg" viewBox="0 0 512 175.45987">
	<g fill-rule="evenodd">
		<path d="M373 0l-3.7 5h1.7l3.4-2.8 3.3 3h1.7L375.7 0H373zm-54 6c-5 0-8.3 4.3-8.3 11.3v1c0 7 3.3 11 8.4 11 4.6 0 7-2.7 8-7l-3.4-.8c-.6 3.3-2 5.2-4.4 5.2-3.3 0-4.8-3.3-4.8-8V17c0-4.8 1.5-8 4.7-8 2.5 0 3.8 1.5 4.4 4.8l3.4-1c-1-4-3-6.7-7.7-6.7zm17.6 0c-5.2 0-8.4 4.3-8.4 11.3v1c0 7 3.2 11 8.4 11s8.4-4 8.4-11v-1c0-7-3.2-11.2-8.4-11.2zm37.8 0c-5.2 0-8.4 4.3-8.4 11.3v1c0 7 3.2 11 8.4 11s8.5-4 8.5-11v-1c0-7-3.4-11.2-8.6-11.2zM430 6c-5.4 0-8.5 4.3-8.5 11.3v1c0 7 3.2 11 8.3 11 4.4 0 7-2.7 7.8-7l-3.3-.8c-.7 3.3-2 5.2-4.4 5.2-3.4 0-4.8-3.3-4.8-8V17c0-4.8 1.4-8 4.7-8 2.2 0 3.5 1.5 4 4.8l3.5-1c-.8-4-3-6.7-7.6-6.7zm17.3 0c-5.2 0-8.4 4.3-8.4 11.3v1c0 7 3 11 8.3 11 5.3 0 8.5-4 8.5-11v-1c0-7-3.2-11.2-8.5-11.2zM296 6.7V29h14.3v-2.7h-10.7v-7.6h8.3V16h-8.4V9.3H310V6.6h-14zm51.6 0V29h3.3V12l8.8 17h3.6V6.7h-3.2V23h-.3l-8.4-16.4h-4zm37.8 0V29h3.2V10.4h.2l5.8 18.8h3.7l5.8-18.7h.4V29h3.4V6.7H402l-5.3 18h-.2l-5.5-18h-5.6zm25 0V8h3v19.5h-3V29h9.8v-1.5H417V8h3.2V6.7h-10zM336.5 9c3.2 0 4.8 3 4.8 8v1.7c0 4.8-1.6 8-4.8 8-3.2 0-4.7-3.2-4.7-8V17c0-5 1.4-8 4.6-8zm37.8 0c3.2 0 4.8 3 4.8 8v1.7c0 4.8-1.6 8-4.8 8-3.2 0-4.7-3.2-4.7-8V17c0-5 1.5-8 4.7-8zm73 0c3 0 4.7 3 4.7 8v1.7c0 4.8-1.5 8-4.7 8-3 0-4.7-3.2-4.7-8V17c0-5 1.6-8 4.7-8z" fill="#808080"/> <!-- #231f20 -->
		<path d="M278 6.5c-2.8 0-9 .6-14 .6h-31.3c-.3 0-.7.3-.7.7V11c0 .4.4.8.7.8h17.5c.3 0 .6.2.6.6v155.8c0 .4-.3.6-.6.6h-12.5c-9.4 0-14.3-2.8-14.3-15.4v-53.2c0-29.8-11.5-43-48.8-43C154.8 57.3 133 65 133 84c0 6.4 5 12.7 14.5 12.7s14-5.2 14-12.8c0-4-.6-8.3-.6-13.2 0-6.7 4.8-8.8 12.5-8.8 15 0 21.5 7 21.5 24.2V97c0 2.8-.5 4-6.8 5.7-5.2 1.4-14.3 3.8-21.7 5.2-30.6 5.6-40.6 18-40.6 33.7 0 22.7 18 33.7 39.3 33.7 14 0 25-7 29.6-16.2h.6c1 6.4 5.7 14.4 23.5 14.4h78.4c.3 0 .6-.3.6-.7v-3.6c0-.3-.3-.6-.6-.6h-18c-.3 0-.6-.3-.6-.7V7.4c0-.5-.3-.8-1-.8zM.5 7c-.3 0-.6.3-.6.7V11c0 .4.3.8.6.8H16c1 0 1.4.6 1.7 1.3l61.7 160c.2.4.6.7 1 .7h4.2c.3 0 .6-.3.8-.6l58.4-157.5c.8-2.3 1.7-3.7 4.5-3.7h14c.2 0 .5-.4.5-.7V7.8c0-.4-.3-.6-.6-.6h-41.4c-.3 0-.7.3-.7.7V11c0 .4.5.8.8.8h15.8c1.4 0 2.5.7 2.5 1.7l-.4 2.3-42.8 115h-.5L52 13v-.5c0-.4.2-.7 1-.7H70c.3 0 .7-.4.7-.7V7.8c0-.4-.5-.6-.8-.6H.6zM352 57.4c-34 0-57.4 23.8-57.4 59.5 0 35.6 23.4 58.7 57.5 58.7 34 0 57.6-23 57.6-58.7 0-35.8-23.5-59.5-57.5-59.5zm138.2 0c-17.5 0-29 12-34.3 25.3h-.7V59.4c0-.5-.4-.8-1-.8-2.7 0-9 .6-14 .6H410c-.4 0-.6.2-.6.6v3.4c0 .4.2.7.6.7h17.5c.4 0 .6 0 .6.5V168c0 .5-.3.7-.7.7h-17.8c-.3 0-.6.3-.6.6v3.6c0 .3.2.5.5.5h65c.3 0 .6-.2.6-.6v-3.7c0-.3-.2-.6-.5-.6h-18c-.2 0-.6-.2-.6-.6v-58c0-16 3.8-26.8 8-32.2 4.6-6.6 10.8-13.8 17-13.8 1.7 0 3.2.7 3.2 2.4 0 3-1.7 7.2-1.7 13.3 0 9 5 14.4 14 14.4C507.4 94 512 89 512 77.8c0-10.2-5.3-20.4-21.8-20.4zm-138 4.7c5 0 10.7 1.4 14 3.7 7.2 5.4 12.5 19.3 12.5 51 0 32-5.3 45-12.6 50.4-3 2.4-9 3.8-14 3.8s-10.7-1.4-14-3.7c-7.3-5.3-12.6-18.4-12.6-50.2 0-31.8 5.3-45.7 12.7-51 3.3-2.4 9-3.8 14-3.8zm-157 43.4V143c0 12-8 25.7-24 25.7-9.6 0-15.3-10.6-15.3-26.6 0-20.2 4.5-27.3 18-31 8-1.7 16.8-4 21-5.6z" fill="#626262"/> <!-- #006269 -->
	</g>
</svg>